<svg id="Capa_1" enable-background="new 0 0 512.004 512.004" height="512" viewBox="0 0 512.004 512.004" width="512" xmlns="http://www.w3.org/2000/svg"><g><path d="m411.69 290.104-14.27-12.908c-9.205-8.326-14.456-20.158-14.456-32.57v-150.943c-.001-51.74-41.944-93.683-93.684-93.683h-59.866c-15.646 0-30.414 7.228-40.013 19.583l-7.676 9.88c-4.756 6.122-12.074 9.703-19.826 9.703-18.147 0-32.858 14.711-32.858 32.858v172.602c0 12.412-5.252 24.244-14.456 32.57l-14.27 12.908c-9.205 8.326-14.456 20.158-14.456 32.57 0 22.796 17.449 41.711 40.152 43.756 32.447 2.922 97.413 2.029 129.992 2.029s97.545.893 129.992-2.029c22.704-2.044 40.152-20.96 40.152-43.756-.001-12.412-5.253-24.244-14.457-32.57z" fill="#655e67"/><g fill="#544f56"><path d="m230.582 368.458c-9.203 0-20.992.071-33.9.108 16.71.061 33.116-.029 46.61-.078-4.608-.018-8.888-.03-12.71-.03z"/><path d="m411.69 290.104-14.27-12.908c-9.205-8.326-14.456-20.158-14.456-32.57v-150.943c-.001-51.74-41.944-93.683-93.684-93.683h-25.42c51.74 0 93.683 41.943 93.683 93.683v150.942c0 12.411 5.252 24.243 14.456 32.57l14.27 12.908c9.205 8.326 14.456 20.158 14.456 32.57 0 22.796-17.449 41.711-40.152 43.756-17.495 1.575-44.443 2.041-70.672 2.136 32.789.093 72.81-.04 96.092-2.136 22.704-2.045 40.152-20.96 40.152-43.756.001-12.411-5.251-24.243-14.455-32.569z"/></g><path d="m256.002 275.969c66.71 0 124.014 45.477 135.569 174.799 1.393 15.586-.575 30.224-12.389 43.923-15.526 18.004-31.825 17.309-31.825 17.309h-219.103c-5.54 0-9.943-4.838-9.943-10.751 0-168.179 62.94-225.28 137.691-225.28z" fill="#acd980"/><path d="m256.002 275.969c-4.487 0-8.93.212-13.321.635 68.757 6.626 124.369 66.561 124.369 224.645 0 5.913-4.402 10.751-9.942 10.751 0 0 19.622-1.902 23.2-6.609 5.35-7.039 12.66-38.927 11.276-54.471-11.524-129.438-68.846-174.951-135.582-174.951z" fill="#8cc951"/><path d="m340.409 448.467c1.981 18.861 3.142 39.965 3.341 63.533h40c5.54 0 9.943-4.838 9.943-10.751 0-18.989-.807-36.553-2.341-52.782z" fill="#f2d1a5"/><path d="m391.351 448.467h-26.643c1.531 16.235 2.342 33.793 2.342 52.782 0 5.912-4.403 10.751-9.942 10.751h26.641c2.424 0 4.63-.926 6.345-2.463 2.208-1.981 3.598-4.966 3.598-8.288 0-17.56-.737-35.813-2.341-52.782z" fill="#f2bb88"/><path d="m120.652 448.467c-1.534 16.229-2.341 33.793-2.341 52.782 0 5.913 4.403 10.751 9.943 10.751h40c.199-23.568 1.36-44.673 3.341-63.533z" fill="#f2d1a5"/><path d="m327.176 330.785c-1.748-10.91-4.805-21.883-8.87-32.471-7.01-18.261-24.754-30.15-44.314-30.15h-35.972c-19.891 0-37.61 12.388-44.645 30.994-3.904 10.327-6.847 21.007-8.548 31.628-1.5 9.36.03 20.103 7.327 26.154 5.322 4.414 12.721 5.482 19.613 4.934 13.433-1.068 27.077-4.6 39.426-10.187 3.064-1.386 6.554-1.386 9.618 0 12.349 5.587 25.993 9.119 39.426 10.187 6.892.548 14.291-.52 19.613-4.934 7.296-6.052 8.826-16.795 7.326-26.155z" fill="#edf6ff"/><path d="m223.478 220.479v61.764c0 7.448 1.832 14.854 4.627 21.819 10.074 25.104 45.72 25.104 55.794 0 2.795-6.965 4.627-14.371 4.627-21.819v-61.764z" fill="#f2d1a5"/><path d="m223.478 268.633c16.155 10.18 33.382 14.385 44.886 14.385 5.619 0 12.604-1.003 20.162-3.215v-59.323h-65.048z" fill="#f2bb88"/><path d="m343.777 153.823c0 72.403-60.259 96.431-87.775 96.431s-87.775-24.028-87.775-96.431c0-13.291 1.076-24.962 3.086-35.179 14.864-5.534 28.06-15.585 37.248-28.521 1.939-2.72 5.711-3.287 8.407-1.301 34.256 25.21 81.106 34.989 123.001 26.405 2.484 11.02 3.808 23.803 3.808 38.596z" fill="#f2d1a5"/><g fill="#655e67"><g><path d="m297.651 164.907c-4.267 0-7.726-3.459-7.726-7.726v-3.216c0-4.267 3.459-7.726 7.726-7.726s7.726 3.459 7.726 7.726v3.216c0 4.267-3.459 7.726-7.726 7.726z"/><path d="m214.353 164.907c-4.267 0-7.726-3.459-7.726-7.726v-3.216c0-4.267 3.459-7.726 7.726-7.726s7.726 3.459 7.726 7.726v3.216c0 4.267-3.459 7.726-7.726 7.726z"/></g><path d="m256.002 208.395c-7.578 0-15.157-2.731-22.525-8.195-3.428-2.542-4.146-7.381-1.604-10.808 2.543-3.428 7.382-4.145 10.808-1.604 9.212 6.831 17.429 6.831 26.641 0 3.428-2.542 8.267-1.823 10.808 1.604 2.542 3.428 1.823 8.267-1.604 10.808-7.367 5.464-14.946 8.195-22.524 8.195z"/></g></g></svg>